nColumns=19
nRows=70
DataType=double
version=3
OpenSimVersion=4.1
endheader
time	ground_force_calcn_r_vx	ground_force_calcn_r_vy	ground_force_calcn_r_vz	ground_force_calcn_r_px	ground_force_calcn_r_py	ground_force_calcn_r_pz	ground_force_calcn_r_mx	ground_force_calcn_r_my	ground_force_calcn_r_mz	ground_force_calcn_l_vx	ground_force_calcn_l_vy	ground_force_calcn_l_vz	ground_force_calcn_l_px	ground_force_calcn_l_py	ground_force_calcn_l_pz	ground_force_calcn_l_mx	ground_force_calcn_l_my	ground_force_calcn_l_mz
0	-25.6821	235.943	-14.0806	0.239116	0	-0.083412	0.00967644	-0.0888981	0.00530526	0	0	0	0	0	0	0	0	0
0.01	-33.465	261.748	-17.4992	0.244591	0	-0.0821987	0.0204752	-0.160147	0.0107067	0	0	0	0	0	0	0	0	0
0.02	-42.2178	292.064	-21.5114	0.251019	0	-0.0809147	0.0348981	-0.241426	0.0177818	0	0	0	0	0	0	0	0	0
0.03	-51.7691	326.589	-26.0852	0.257246	0	-0.079802	0.0522056	-0.329343	0.0263051	0	0	0	0	0	0	0	0	0
0.04	-61.8719	364.708	-31.1485	0.263125	0	-0.0788668	0.0714334	-0.421069	0.0359621	0	0	0	0	0	0	0	0	0
0.05	-72.1925	405.476	-36.5848	0.268564	0	-0.0780978	0.091605	-0.514508	0.0464224	0	0	0	0	0	0	0	0	0
0.06	-82.3115	447.659	-42.2404	0.273518	0	-0.07747	0.111893	-0.60854	0.0574209	0	0	0	0	0	0	0	0	0
0.07	-91.7654	489.856	-47.9453	0.277977	0	-0.0769548	0.131786	-0.703491	0.0688551	0	0	0	0	0	0	0	0	0
0.08	-100.131	530.691	-53.5457	0.281965	0	-0.0765197	0.151222	-0.801477	0.0808675	0	0	0	0	0	0	0	0	0
0.09	-107.075	568.933	-58.9063	0.285531	0	-0.0761344	0.170378	-0.905286	0.0937316	0	0	0	0	0	0	0	0	0
0.1	-112.369	603.522	-63.9012	0.288737	0	-0.0757761	0.18929	-1.01666	0.107644	0	0	0	0	0	0	0	0	0
0.11	-115.887	633.564	-68.4096	0.291651	0	-0.0754273	0.207738	-1.13571	0.12263	0	0	0	0	0	0	0	0	0
0.12	-117.607	658.351	-72.3241	0.29434	0	-0.0750737	0.22531	-1.26126	0.138557	0	0	0	0	0	0	0	0	0
0.13	-117.594	677.394	-75.5573	0.29687	0	-0.0747043	0.241489	-1.39108	0.155163	0	0	0	0	0	0	0	0	0
0.14	-115.989	690.447	-78.0468	0.299306	0	-0.0743124	0.255742	-1.52236	0.172085	0	0	0	0	0	0	0	0	0
0.15	-112.977	697.506	-79.7617	0.301702	0	-0.0738913	0.267579	-1.652	0.188911	0	0	0	0	0	0	0	0	0
0.16	-108.769	698.798	-80.7027	0.304105	0	-0.0734383	0.276593	-1.777	0.205222	0	0	0	0	0	0	0	0	0
0.17	-103.579	694.743	-80.8997	0.306553	0	-0.0729478	0.282494	-1.89479	0.220639	0	0	0	0	0	0	0	0	0
0.18	-97.6219	685.919	-80.4104	0.309075	0	-0.072419	0.285108	-2.00325	0.234841	0	0	0	0	0	0	0	0	0
0.19	-91.1071	673.014	-79.315	0.311699	0	-0.0718474	0.28439	-2.10081	0.247581	0	0	0	0	0	0	0	0	0
0.2	-84.2387	656.789	-77.71	0.314452	0	-0.0712322	0.280422	-2.18639	0.258689	0	0	0	0	0	0	0	0	0
0.21	-77.207	638.045	-75.6983	0.317357	0	-0.0705697	0.273404	-2.25943	0.268061	0	0	0	0	0	0	0	0	0
0.22	-70.1832	617.589	-73.3823	0.320438	0	-0.0698622	0.26367	-2.32021	0.275689	0	0	0	0	0	0	0	0	0
0.23	-63.314	596.206	-70.8604	0.323707	0	-0.0691098	0.251678	-2.36996	0.281676	0	0	0	0	0	0	0	0	0
0.24	-56.7173	574.636	-68.2255	0.327171	0	-0.0683186	0.23796	-2.41092	0.286244	0	0	0	0	0	0	0	0	0
0.25	-50.4801	553.56	-65.5627	0.330823	0	-0.0674975	0.223062	-2.44608	0.289709	0	0	0	0	0	0	0	0	0
0.26	-44.6607	533.588	-62.9477	0.334644	0	-0.0666574	0.207484	-2.47894	0.292442	0	0	0	0	0	0	0	0	0
0.27	-39.29	515.252	-60.446	0.338605	0	-0.0658163	0.191638	-2.51315	0.294827	0	0	0	0	0	0	0	0	0
0.28	-34.3746	499.008	-58.1145	0.342659	0	-0.064991	0.175805	-2.55213	0.297221	0	0	0	0	0	0	0	0	0
0.29	-29.8982	485.23	-56.0039	0.346755	0	-0.0642066	0.160102	-2.59836	0.299895	0	0	0	0	0	0	0	0	0
0.3	-25.8262	474.211	-54.1613	0.350833	0	-0.0634831	0.144485	-2.65299	0.303006	0	0	0	0	0	0	0	0	0
0.31	-22.11	466.165	-52.6293	0.35483	0	-0.0628424	0.128794	-2.71548	0.306574	0	0	0	0	0	0	0	0	0
0.32	-18.6912	461.22	-51.4446	0.35869	0	-0.0623002	0.11281	-2.78367	0.310491	0	0	0	0	0	0	0	0	0
0.33	-15.5057	459.432	-50.6338	0.362363	0	-0.0618712	0.0963254	-2.8541	0.31455	0	0	0	0	0	0	0	0	0
0.34	-12.4857	460.776	-50.2119	0.365814	0	-0.0615594	0.0791907	-2.92249	0.318471	0	0	0	0	0	0	0	0	0
0.35	-9.56194	465.157	-50.1809	0.369027	0	-0.0613669	0.0613414	-2.98406	0.321918	0	0	0	0	0	0	0	0	0
0.36	-6.66584	472.4	-50.5316	0.371998	0	-0.0612856	0.0428098	-3.03388	0.324527	0	0	0	0	0	0	0	0	0
0.37	-3.73051	482.257	-51.2452	0.374743	0	-0.0613063	0.0237252	-3.06704	0.325908	0	0	0	0	0	0	0	0	0
0.38	-0.693023	494.41	-52.2937	0.37729	0	-0.0614127	0.00431566	-3.07884	0.325649	0	0	0	0	0	0	0	0	0
0.39	2.50349	508.479	-53.6391	0.379674	0	-0.0615918	-0.0150906	-3.06502	0.323327	0	0	0	0	0	0	0	0	0
0.4	5.90791	524.032	-55.2315	0.381933	0	-0.0618287	-0.0340712	-3.02212	0.318523	0	0	0	0	0	0	0	0	0
0.41	9.56064	540.591	-57.0084	0.384101	0	-0.0621118	-0.0521318	-2.94771	0.310853	0	0	0	0	0	0	0	0	0
0.42	13.4927	557.64	-58.8953	0.386208	0	-0.0624316	-0.0687294	-2.84052	0.300002	0	0	0	0	0	0	0	0	0
0.43	17.7239	574.634	-60.8081	0.388279	0	-0.0627831	-0.0832921	-2.70045	0.285763	0	0	0	0	0	0	0	0	0
0.44	22.2612	591.004	-62.6571	0.390328	0	-0.0631611	-0.095242	-2.52854	0.268072	0	0	0	0	0	0	0	0	0
0.45	27.0974	606.159	-64.3501	0.392364	0	-0.0635607	-0.104032	-2.32715	0.247051	0	0	0	0	0	0	0	0	0
0.46	32.2102	619.495	-65.7946	0.394395	0	-0.0639821	-0.109192	-2.10007	0.223042	0	0	0	0	0	0	0	0	0
0.47	37.5598	630.403	-66.9002	0.396421	0	-0.0644234	-0.110382	-1.85264	0.196608	0	0	0	0	0	0	0	0	0
0.48	43.0854	638.276	-67.5803	0.398441	0	-0.0648851	-0.107443	-1.59169	0.168527	0	0	0	0	0	0	0	0	0
0.49	48.6999	642.528	-67.7538	0.400454	0	-0.0653667	-0.100457	-1.32539	0.139761	0	0	0	0	0	0	0	0	0
0.5	54.2865	642.601	-67.3477	0.40246	0	-0.06587	-0.0898044	-1.06303	0.111411	0	0	0	0	0	0	0	0	0
0.51	59.6964	637.986	-66.3011	0.404462	0	-0.066395	-0.0762017	-0.814382	0.0846326	8.0384	20.4861	-2.6226	0.696655	0	-0.28484	0.219511	0.559432	-0.0716176
0.52	64.7517	628.254	-64.5702	0.406466	0	-0.066945	-0.0606889	-0.588835	0.0605189	8.58712	33.5792	-2.32223	0.733025	0	-0.304185	0.161305	0.630768	-0.043622
0.53	69.2529	613.085	-62.135	0.408477	0	-0.0675217	-0.0445668	-0.394543	0.0399862	8.59045	49.5774	-1.86813	0.759266	0	-0.315499	0.115202	0.664858	-0.0250525
0.54	72.9882	592.306	-59.0063	0.410507	0	-0.0681258	-0.0292668	-0.237502	0.0236603	7.81979	68.5198	-1.2277	0.777014	0	-0.322115	0.0786411	0.689082	-0.0123466
0.55	75.7466	565.925	-55.2311	0.412563	0	-0.0687581	-0.0161775	-0.120867	0.0117959	6.09046	90.3567	-0.36527	0.790436	0	-0.326457	0.0482687	0.716104	-0.00289487
0.56	77.3316	534.158	-50.8932	0.41466	0	-0.0694175	-0.00643668	-0.0444605	0.00423609	3.38324	115.111	0.753299	0.801462	0	-0.329584	0.0221518	0.753689	0.00493223
0.57	77.5804	497.439	-46.1105	0.416809	0	-0.0700993	-0.000719617	-0.00461412	0.00042771	-0.216241	142.891	2.17941	0.811059	0	-0.332019	-0.00122223	0.807648	0.0123185
0.58	76.3831	456.426	-41.0266	0.419027	0	-0.0707998	0.000884655	0.00528624	-0.000475163	-4.60483	173.796	3.99342	0.819728	0	-0.334045	-0.0233962	0.883022	0.0202898
0.59	73.6974	411.996	-35.8022	0.421335	0	-0.0715114	-0.00110557	-0.00618056	0.000537088	-9.68855	207.84	6.29754	0.827745	0	-0.335822	-0.0458811	0.984247	0.0298226
0.6	69.5635	365.228	-30.6021	0.42376	0	-0.0722249	-0.00567674	-0.0298045	0.00249729	-15.3794	244.911	9.2089	0.835261	0	-0.337447	-0.069971	1.11426	0.0418974
0.61	64.1191	317.359	-25.5808	0.426337	0	-0.0729299	-0.0115633	-0.0572329	0.00461328	-21.5723	284.744	12.836	0.842362	0	-0.338981	-0.0964437	1.27301	0.0573863
0.62	57.6037	269.703	-20.8689	0.429122	0	-0.0736157	-0.017515	-0.0820061	0.00634541	-28.1336	326.897	17.2416	0.849102	0	-0.340454	-0.125314	1.45608	0.0767982
0.63	50.338	223.577	-16.5663	0.432198	0	-0.0742719	-0.0224539	-0.099729	0.0073896	-34.9113	370.78	22.4238	0.855515	0	-0.341877	-0.155855	1.65528	0.100107
0.64	42.6998	180.186	-12.7393	0.435703	0	-0.0748901	-0.0256366	-0.108182	0.00764858	-41.7489	415.738	28.3241	0.861635	0	-0.343255	-0.186847	1.86064	0.126765
0.65	35.0815	140.536	-9.42057	0.439875	0	-0.0754564	-0.0267755	-0.107262	0.00719013	-48.5046	461.154	34.8398	0.86749	0	-0.34459	-0.216895	2.06211	0.155791
0.66	27.8379	105.355	-6.61323	0.445161	0	-0.0759555	-0.0260246	-0.0984925	0.00618244	-55.0497	506.476	41.819	0.873103	0	-0.345872	-0.244562	2.25005	0.185783
0.67	21.2416	75.0643	-4.30027	0.452454	0	-0.0763496	-0.0238872	-0.0844134	0.00483585	-61.2486	551.165	49.0527	0.878487	0	-0.347092	-0.268454	2.41577	0.214999
0.68	15.4564	49.7753	-2.45191	0.463805	0	-0.0765434	-0.0212487	-0.0684287	0.00337077	-66.9525	594.62	56.2904	0.883644	0	-0.348234	-0.287399	2.55245	0.241631
0.69	10.5467	29.3273	-1.02654	0.485111	0	-0.0762867	-0.0200494	-0.0557515	0.00195146	-72.0135	636.156	63.2739	0.888575	0	-0.349291	-0.300658	2.65597	0.26417
